<svg width="29" height="26" viewBox="0 0 29 26" fill="none" xmlns="http://www.w3.org/2000/svg">
<path d="M28.1594 21.0094L17.2282 2.02563C16.955 1.56054 16.5651 1.1749 16.097 0.906955C15.6288 0.639007 15.0988 0.498047 14.5594 0.498047C14.0201 0.498047 13.4901 0.639007 13.0219 0.906955C12.5538 1.1749 12.1639 1.56054 11.8907 2.02563L0.959446 21.0094C0.696616 21.4592 0.558105 21.9709 0.558105 22.4919C0.558105 23.0129 0.696616 23.5245 0.959446 23.9744C1.22911 24.4423 1.61841 24.83 2.0874 25.0978C2.55639 25.3656 3.08818 25.5037 3.6282 25.4981H25.4907C26.0303 25.5033 26.5616 25.3649 27.0301 25.0972C27.4986 24.8294 27.8875 24.4419 28.1569 23.9744C28.4202 23.5247 28.5591 23.0132 28.5595 22.4922C28.56 21.9712 28.4219 21.4595 28.1594 21.0094ZM26.4257 22.9731C26.3304 23.1357 26.1936 23.27 26.0293 23.3622C25.865 23.4545 25.6791 23.5014 25.4907 23.4981H3.6282C3.43979 23.5014 3.25391 23.4545 3.08961 23.3622C2.92531 23.27 2.78849 23.1357 2.6932 22.9731C2.60688 22.827 2.56134 22.6604 2.56134 22.4906C2.56134 22.3209 2.60688 22.1543 2.6932 22.0081L13.6244 3.02438C13.7217 2.86259 13.8591 2.72872 14.0234 2.63578C14.1877 2.54284 14.3732 2.494 14.5619 2.494C14.7507 2.494 14.9362 2.54284 15.1005 2.63578C15.2648 2.72872 15.4022 2.86259 15.4994 3.02438L26.4307 22.0081C26.5163 22.1547 26.5609 22.3216 26.5601 22.4913C26.5592 22.661 26.5128 22.8274 26.4257 22.9731ZM13.5594 15.4981V10.4981C13.5594 10.2329 13.6648 9.97856 13.8523 9.79102C14.0399 9.60349 14.2942 9.49813 14.5594 9.49813C14.8247 9.49813 15.079 9.60349 15.2666 9.79102C15.4541 9.97856 15.5594 10.2329 15.5594 10.4981V15.4981C15.5594 15.7633 15.4541 16.0177 15.2666 16.2052C15.079 16.3928 14.8247 16.4981 14.5594 16.4981C14.2942 16.4981 14.0399 16.3928 13.8523 16.2052C13.6648 16.0177 13.5594 15.7633 13.5594 15.4981ZM16.0594 19.9981C16.0594 20.2948 15.9715 20.5848 15.8067 20.8315C15.6418 21.0782 15.4076 21.2704 15.1335 21.3839C14.8594 21.4975 14.5578 21.5272 14.2668 21.4693C13.9758 21.4114 13.7086 21.2686 13.4988 21.0588C13.289 20.849 13.1461 20.5817 13.0883 20.2908C13.0304 19.9998 13.0601 19.6982 13.1736 19.4241C13.2872 19.15 13.4794 18.9157 13.7261 18.7509C13.9728 18.5861 14.2628 18.4981 14.5594 18.4981C14.9573 18.4981 15.3388 18.6562 15.6201 18.9375C15.9014 19.2188 16.0594 19.6003 16.0594 19.9981Z" fill="#F5F4F3"/>
</svg>
