<svg width="29" height="26" viewBox="0 0 29 26" fill="none" xmlns="http://www.w3.org/2000/svg">
<path d="M28.1594 20.5738L17.2282 1.59008C16.955 1.12499 16.5651 0.739356 16.097 0.471408C15.6288 0.20346 15.0988 0.0625 14.5594 0.0625C14.0201 0.0625 13.4901 0.20346 13.0219 0.471408C12.5538 0.739356 12.1639 1.12499 11.8907 1.59008L0.959446 20.5738C0.696616 21.0237 0.558105 21.5353 0.558105 22.0563C0.558105 22.5773 0.696616 23.089 0.959446 23.5388C1.22911 24.0067 1.61841 24.3945 2.0874 24.6622C2.55639 24.93 3.08818 25.0682 3.6282 25.0626H25.4907C26.0303 25.0677 26.5616 24.9294 27.0301 24.6616C27.4986 24.3939 27.8875 24.0064 28.1569 23.5388C28.4202 23.0892 28.5591 22.5777 28.5595 22.0567C28.56 21.5357 28.4219 21.0239 28.1594 20.5738ZM13.5594 10.0626C13.5594 9.79737 13.6648 9.54301 13.8523 9.35548C14.0399 9.16794 14.2942 9.06258 14.5594 9.06258C14.8247 9.06258 15.079 9.16794 15.2666 9.35548C15.4541 9.54301 15.5594 9.79737 15.5594 10.0626V15.0626C15.5594 15.3278 15.4541 15.5822 15.2666 15.7697C15.079 15.9572 14.8247 16.0626 14.5594 16.0626C14.2942 16.0626 14.0399 15.9572 13.8523 15.7697C13.6648 15.5822 13.5594 15.3278 13.5594 15.0626V10.0626ZM14.5594 21.0626C14.2628 21.0626 13.9728 20.9746 13.7261 20.8098C13.4794 20.645 13.2872 20.4107 13.1736 20.1366C13.0601 19.8625 13.0304 19.5609 13.0883 19.2699C13.1461 18.979 13.289 18.7117 13.4988 18.5019C13.7086 18.2921 13.9758 18.1493 14.2668 18.0914C14.5578 18.0335 14.8594 18.0632 15.1335 18.1768C15.4076 18.2903 15.6418 18.4826 15.8067 18.7292C15.9715 18.9759 16.0594 19.2659 16.0594 19.5626C16.0594 19.9604 15.9014 20.3419 15.6201 20.6232C15.3388 20.9045 14.9573 21.0626 14.5594 21.0626Z" fill="#579DFF"/>
</svg>
