<svg width="29" height="27" viewBox="0 0 29 27" fill="none" xmlns="http://www.w3.org/2000/svg">
<path d="M27.2005 20.4783C27.9057 19.0447 28.2572 17.4629 28.2255 15.8656C28.1938 14.2682 27.7798 12.7016 27.0182 11.2971C26.2566 9.89265 25.1695 8.69109 23.8481 7.79309C22.5266 6.89509 21.0092 6.32679 19.423 6.13579C18.8969 4.90944 18.1307 3.80079 17.1695 2.87515C16.2084 1.94951 15.0716 1.22561 13.8264 0.746087C12.5811 0.266567 11.2524 0.0411319 9.91864 0.0830636C8.58488 0.124995 7.27301 0.433446 6.0603 0.990242C4.8476 1.54704 3.7586 2.34092 2.85746 3.32511C1.95633 4.3093 1.26128 5.46389 0.813282 6.72085C0.365281 7.97782 0.173385 9.31174 0.2489 10.644C0.324414 11.9763 0.665812 13.28 1.25298 14.4783L0.295478 17.8308C0.210036 18.1307 0.206293 18.448 0.284636 18.7499C0.362979 19.0517 0.520562 19.3272 0.741079 19.5477C0.961595 19.7682 1.23703 19.9258 1.53889 20.0041C1.84075 20.0825 2.15805 20.0787 2.45798 19.9933L5.81048 19.0358C6.82211 19.5325 7.9103 19.8549 9.02923 19.9895C9.5626 21.2392 10.345 22.367 11.3287 23.3042C12.3125 24.2414 13.4769 24.9682 14.7508 25.4405C16.0248 25.9127 17.3817 26.1204 18.7386 26.0508C20.0955 25.9812 21.424 25.6359 22.643 25.0358L25.9955 25.9933C26.2954 26.0787 26.6127 26.0825 26.9146 26.0041C27.2164 25.9258 27.4919 25.7682 27.7124 25.5477C27.9329 25.3272 28.0905 25.0517 28.1688 24.7499C28.2472 24.448 28.2434 24.1307 28.158 23.8308L27.2005 20.4783ZM25.168 20.6458L26.1117 23.947L22.8105 23.0033C22.559 22.9326 22.2898 22.9631 22.0605 23.0883C20.2171 24.0912 18.0537 24.3303 16.0358 23.7543C14.0178 23.1783 12.3067 21.8331 11.2705 20.0083C12.6398 19.8657 13.9649 19.4416 15.1625 18.7627C16.3602 18.0838 17.4047 17.1647 18.2304 16.0631C19.0561 14.9615 19.6452 13.7011 19.9608 12.361C20.2763 11.0209 20.3116 9.63011 20.0642 8.27579C21.2625 8.55819 22.3794 9.11333 23.3281 9.89799C24.2767 10.6827 25.0315 11.6757 25.5336 12.7997C26.0356 13.9238 26.2715 15.1486 26.2229 16.3787C26.1742 17.6088 25.8423 18.8112 25.253 19.892C25.1268 20.1224 25.0962 20.3931 25.168 20.6458Z" fill="#579DFF"/>
</svg>
