<svg width="29" height="27" viewBox="0 0 29 27" fill="none" xmlns="http://www.w3.org/2000/svg">
<path d="M27.2005 20.9138C27.9057 19.4802 28.2572 17.8985 28.2255 16.3011C28.1938 14.7037 27.7798 13.1372 27.0182 11.7327C26.2566 10.3282 25.1695 9.12664 23.8481 8.22864C22.5266 7.33064 21.0092 6.76234 19.423 6.57134C18.8969 5.34499 18.1307 4.23634 17.1695 3.3107C16.2084 2.38506 15.0716 1.66115 13.8264 1.18163C12.5811 0.702114 11.2524 0.476679 9.91864 0.51861C8.58488 0.560542 7.27301 0.868993 6.0603 1.42579C4.8476 1.98258 3.7586 2.77646 2.85746 3.76065C1.95633 4.74484 1.26128 5.89943 0.813282 7.1564C0.365281 8.41337 0.173385 9.74729 0.2489 11.0796C0.324414 12.4118 0.665812 13.7155 1.25298 14.9138L0.295478 18.2663C0.210036 18.5663 0.206293 18.8836 0.284636 19.1854C0.362979 19.4873 0.520562 19.7627 0.741079 19.9832C0.961595 20.2038 1.23703 20.3613 1.53889 20.4397C1.84075 20.518 2.15805 20.5143 2.45798 20.4288L5.81048 19.4713C6.82211 19.968 7.9103 20.2905 9.02923 20.4251C9.5626 21.6747 10.345 22.8025 11.3287 23.7397C12.3125 24.6769 13.4769 25.4038 14.7508 25.876C16.0248 26.3483 17.3817 26.5559 18.7386 26.4863C20.0955 26.4168 21.424 26.0714 22.643 25.4713L25.9955 26.4288C26.2954 26.5143 26.6127 26.518 26.9146 26.4397C27.2164 26.3613 27.4919 26.2038 27.7124 25.9832C27.9329 25.7627 28.0905 25.4873 28.1688 25.1854C28.2472 24.8836 28.2434 24.5663 28.158 24.2663L27.2005 20.9138ZM5.91798 17.4013C5.82504 17.4013 5.73253 17.414 5.64298 17.4388L2.34173 18.3826L3.28548 15.0813C3.35621 14.8298 3.3257 14.5606 3.20048 14.3313C2.281 12.6433 2.0006 10.6804 2.41067 8.80235C2.82075 6.92435 3.89382 5.257 5.43327 4.10583C6.97272 2.95467 8.87543 2.39679 10.7928 2.53442C12.7101 2.67205 14.5136 3.49598 15.8728 4.85522C17.2321 6.21446 18.056 8.01798 18.1936 9.93531C18.3313 11.8526 17.7734 13.7553 16.6222 15.2948C15.4711 16.8342 13.8037 17.9073 11.9257 18.3174C10.0477 18.7275 8.08481 18.4471 6.39673 17.5276C6.25037 17.4457 6.08566 17.4023 5.91798 17.4013ZM25.168 21.0813L26.1117 24.3826L22.8105 23.4388C22.559 23.3681 22.2898 23.3986 22.0605 23.5238C20.2171 24.5267 18.0537 24.7659 16.0358 24.1899C14.0178 23.6139 12.3067 22.2687 11.2705 20.4438C12.6398 20.3012 13.9649 19.8772 15.1625 19.1983C16.3602 18.5194 17.4047 17.6003 18.2304 16.4986C19.0561 15.397 19.6452 14.1366 19.9608 12.7965C20.2763 11.4565 20.3116 10.0657 20.0642 8.71134C21.2625 8.99373 22.3794 9.54887 23.3281 10.3335C24.2767 11.1182 25.0315 12.1112 25.5336 13.2353C26.0356 14.3593 26.2715 15.5841 26.2229 16.8143C26.1742 18.0444 25.8423 19.2467 25.253 20.3276C25.1268 20.5579 25.0962 20.8287 25.168 21.0813Z" fill="#F5F4F3"/>
</svg>
