<svg width="23" height="27" viewBox="0 0 23 27" fill="none" xmlns="http://www.w3.org/2000/svg">
<path d="M22.6006 7.355L15.6006 0.355C15.5076 0.262166 15.3973 0.188552 15.2759 0.138364C15.1545 0.0881758 15.0244 0.062397 14.8931 0.0625003H2.89307C2.36263 0.0625003 1.85393 0.273214 1.47885 0.648287C1.10378 1.02336 0.893066 1.53207 0.893066 2.0625V24.0625C0.893066 24.5929 1.10378 25.1016 1.47885 25.4767C1.85393 25.8518 2.36263 26.0625 2.89307 26.0625H20.8931C21.4235 26.0625 21.9322 25.8518 22.3073 25.4767C22.6824 25.1016 22.8931 24.5929 22.8931 24.0625V8.0625C22.8932 7.93114 22.8674 7.80105 22.8172 7.67965C22.767 7.55826 22.6934 7.44794 22.6006 7.355ZM15.8931 19.0625H7.89307C7.62785 19.0625 7.3735 18.9571 7.18596 18.7696C6.99842 18.5821 6.89307 18.3277 6.89307 18.0625C6.89307 17.7973 6.99842 17.5429 7.18596 17.3554C7.3735 17.1679 7.62785 17.0625 7.89307 17.0625H15.8931C16.1583 17.0625 16.4126 17.1679 16.6002 17.3554C16.7877 17.5429 16.8931 17.7973 16.8931 18.0625C16.8931 18.3277 16.7877 18.5821 16.6002 18.7696C16.4126 18.9571 16.1583 19.0625 15.8931 19.0625ZM15.8931 15.0625H7.89307C7.62785 15.0625 7.3735 14.9571 7.18596 14.7696C6.99842 14.5821 6.89307 14.3277 6.89307 14.0625C6.89307 13.7973 6.99842 13.5429 7.18596 13.3554C7.3735 13.1679 7.62785 13.0625 7.89307 13.0625H15.8931C16.1583 13.0625 16.4126 13.1679 16.6002 13.3554C16.7877 13.5429 16.8931 13.7973 16.8931 14.0625C16.8931 14.3277 16.7877 14.5821 16.6002 14.7696C16.4126 14.9571 16.1583 15.0625 15.8931 15.0625ZM14.8931 8.0625V2.5625L20.3931 8.0625H14.8931Z" fill="#579DFF"/>
</svg>
