<svg width="23" height="27" viewBox="0 0 23 27" fill="none" xmlns="http://www.w3.org/2000/svg">
<path d="M22.6006 7.79055L15.6006 0.790547C15.5076 0.697713 15.3973 0.624099 15.2759 0.573911C15.1545 0.523723 15.0244 0.497944 14.8931 0.498047H2.89307C2.36263 0.498047 1.85393 0.708761 1.47885 1.08383C1.10378 1.45891 0.893066 1.96761 0.893066 2.49805V24.498C0.893066 25.0285 1.10378 25.5372 1.47885 25.9123C1.85393 26.2873 2.36263 26.498 2.89307 26.498H20.8931C21.4235 26.498 21.9322 26.2873 22.3073 25.9123C22.6824 25.5372 22.8931 25.0285 22.8931 24.498V8.49805C22.8932 8.36669 22.8674 8.23659 22.8172 8.1152C22.767 7.9938 22.6934 7.88348 22.6006 7.79055ZM15.8931 3.9118L19.4793 7.49805H15.8931V3.9118ZM20.8931 24.498H2.89307V2.49805H13.8931V8.49805C13.8931 8.76326 13.9984 9.01762 14.186 9.20515C14.3735 9.39269 14.6278 9.49805 14.8931 9.49805H20.8931V24.498ZM16.8931 14.498C16.8931 14.7633 16.7877 15.0176 16.6002 15.2052C16.4126 15.3927 16.1583 15.498 15.8931 15.498H7.89307C7.62785 15.498 7.3735 15.3927 7.18596 15.2052C6.99842 15.0176 6.89307 14.7633 6.89307 14.498C6.89307 14.2328 6.99842 13.9785 7.18596 13.7909C7.3735 13.6034 7.62785 13.498 7.89307 13.498H15.8931C16.1583 13.498 16.4126 13.6034 16.6002 13.7909C16.7877 13.9785 16.8931 14.2328 16.8931 14.498ZM16.8931 18.498C16.8931 18.7633 16.7877 19.0176 16.6002 19.2052C16.4126 19.3927 16.1583 19.498 15.8931 19.498H7.89307C7.62785 19.498 7.3735 19.3927 7.18596 19.2052C6.99842 19.0176 6.89307 18.7633 6.89307 18.498C6.89307 18.2328 6.99842 17.9785 7.18596 17.7909C7.3735 17.6034 7.62785 17.498 7.89307 17.498H15.8931C16.1583 17.498 16.4126 17.6034 16.6002 17.7909C16.7877 17.9785 16.8931 18.2328 16.8931 18.498Z" fill="#F5F4F3"/>
</svg>
