<svg width="27" height="24" viewBox="0 0 27 24" fill="none" xmlns="http://www.w3.org/2000/svg">
<path d="M26.3411 2.21139C26.2213 2.11805 26.0818 2.05322 25.9332 2.02182C25.7847 1.99041 25.6309 1.99326 25.4836 2.03014L17.8423 3.94014L10.1736 0.105139C9.9599 -0.00143594 9.71515 -0.0280392 9.48357 0.0301396L1.48357 2.03014C1.26723 2.08422 1.07518 2.20905 0.937927 2.3848C0.800676 2.56056 0.726108 2.77714 0.726074 3.00014V21.0001C0.726097 21.1521 0.760748 21.302 0.827395 21.4386C0.894042 21.5752 0.990933 21.6947 1.11071 21.7882C1.23048 21.8817 1.36999 21.9467 1.51864 21.9782C1.66728 22.0098 1.82116 22.007 1.96857 21.9701L9.60982 20.0601L17.2786 23.8951C17.4178 23.9638 17.5709 23.9997 17.7261 24.0001C17.8078 24.0001 17.8893 23.99 17.9686 23.9701L25.9686 21.9701C26.1849 21.9161 26.377 21.7912 26.5142 21.6155C26.6515 21.4397 26.726 21.2231 26.7261 21.0001V3.00014C26.7261 2.84805 26.6914 2.69795 26.6247 2.56127C26.558 2.42459 26.461 2.30493 26.3411 2.21139ZM10.7261 2.61764L16.7261 5.61764V21.3826L10.7261 18.3826V2.61764ZM2.72607 3.78139L8.72607 2.28139V18.2189L2.72607 19.7189V3.78139ZM24.7261 20.2189L18.7261 21.7189V5.78139L24.7261 4.28139V20.2189Z" fill="#F5F4F3"/>
</svg>
