<svg width="27" height="25" viewBox="0 0 27 25" fill="none" xmlns="http://www.w3.org/2000/svg">
<path d="M25.8416 2.27389C25.7218 2.18055 25.5823 2.11572 25.4337 2.08432C25.2852 2.05291 25.1314 2.05576 24.9841 2.09264L17.3428 4.00264L9.67406 0.167639C9.46039 0.0610641 9.21564 0.0344608 8.98406 0.0926396L0.984062 2.09264C0.767723 2.14672 0.575666 2.27155 0.438415 2.4473C0.301164 2.62306 0.226596 2.83964 0.226562 3.06264V21.0626C0.226586 21.2146 0.261236 21.3645 0.327883 21.5011C0.394531 21.6377 0.491421 21.7572 0.611196 21.8507C0.73097 21.9442 0.870479 22.0092 1.01912 22.0407C1.16777 22.0723 1.32165 22.0695 1.46906 22.0326L9.11031 20.1226L16.7791 23.9576C16.9183 24.0263 17.0713 24.0622 17.2266 24.0626C17.3083 24.0626 17.3898 24.0525 17.4691 24.0326L25.4691 22.0326C25.6854 21.9786 25.8775 21.8537 26.0147 21.678C26.152 21.5022 26.2265 21.2856 26.2266 21.0626V3.06264C26.2266 2.91055 26.1919 2.76045 26.1252 2.62377C26.0585 2.48709 25.9615 2.36743 25.8416 2.27389ZM9.22656 18.0626C9.14481 18.0627 9.06336 18.0728 8.98406 18.0926L2.22656 19.7814V3.84389L9.11031 2.12264L9.22656 2.18014V18.0626ZM24.2266 20.2814L17.3428 22.0026L17.2266 21.9451V6.06264C17.3083 6.063 17.3897 6.05334 17.4691 6.03389L24.2266 4.34389V20.2814Z" fill="#579DFF"/>
</svg>
