<svg width="27" height="27" viewBox="0 0 27 27" fill="none" xmlns="http://www.w3.org/2000/svg">
<path d="M13.5596 7.4981C12.3729 7.4981 11.2129 7.85 10.2262 8.50929C9.23951 9.16858 8.47048 10.1056 8.01635 11.202C7.56222 12.2984 7.44341 13.5048 7.67492 14.6686C7.90643 15.8325 8.47787 16.9016 9.31699 17.7407C10.1561 18.5799 11.2252 19.1513 12.3891 19.3828C13.553 19.6143 14.7594 19.4955 15.8557 19.0414C16.9521 18.5873 17.8892 17.8182 18.5484 16.8315C19.2077 15.8448 19.5596 14.6848 19.5596 13.4981C19.558 11.9073 18.9253 10.3822 17.8004 9.25729C16.6756 8.13243 15.1504 7.49976 13.5596 7.4981ZM13.5596 17.4981C12.7685 17.4981 11.9951 17.2635 11.3373 16.824C10.6796 16.3845 10.1669 15.7597 9.86411 15.0288C9.56136 14.2979 9.48215 13.4937 9.63649 12.7177C9.79083 11.9418 10.1718 11.2291 10.7312 10.6697C11.2906 10.1103 12.0033 9.7293 12.7793 9.57496C13.5552 9.42062 14.3595 9.49984 15.0904 9.80259C15.8213 10.1053 16.446 10.618 16.8855 11.2758C17.325 11.9336 17.5596 12.707 17.5596 13.4981C17.5596 14.559 17.1382 15.5764 16.3881 16.3265C15.6379 17.0767 14.6205 17.4981 13.5596 17.4981ZM24.5596 13.7681C24.5646 13.5881 24.5646 13.4081 24.5596 13.2281L26.4246 10.8981C26.5224 10.7758 26.5901 10.6322 26.6222 10.4789C26.6544 10.3256 26.6501 10.1669 26.6096 10.0156C26.3039 8.86636 25.8465 7.76292 25.2496 6.73435C25.1715 6.59975 25.063 6.48525 24.9328 6.39997C24.8026 6.31468 24.6542 6.26097 24.4996 6.2431L21.5346 5.9131C21.4113 5.7831 21.2863 5.6581 21.1596 5.5381L20.8096 2.5656C20.7916 2.41087 20.7377 2.26248 20.6522 2.13227C20.5667 2.00205 20.452 1.89362 20.3171 1.8156C19.2882 1.21979 18.1848 0.762897 17.0359 0.456854C16.8845 0.4166 16.7257 0.412483 16.5724 0.444834C16.4191 0.477186 16.2756 0.5451 16.1534 0.643104L13.8296 2.4981C13.6496 2.4981 13.4696 2.4981 13.2896 2.4981L10.9596 0.636854C10.8373 0.539064 10.6937 0.471376 10.5404 0.439243C10.3871 0.40711 10.2284 0.411429 10.0771 0.451854C8.92806 0.758138 7.8247 1.21546 6.79588 1.81185C6.66127 1.89001 6.54677 1.99851 6.46149 2.12871C6.37621 2.25892 6.32249 2.40723 6.30463 2.56185L5.97463 5.53185C5.84463 5.65602 5.71963 5.78102 5.59963 5.90685L2.62713 6.2481C2.47239 6.26611 2.324 6.32001 2.19379 6.40552C2.06358 6.49102 1.95514 6.60577 1.87713 6.7406C1.28131 7.76956 0.82442 8.87291 0.518377 10.0219C0.478124 10.1733 0.474006 10.332 0.506358 10.4853C0.538709 10.6386 0.606624 10.7821 0.704627 10.9044L2.55963 13.2281C2.55963 13.4081 2.55963 13.5881 2.55963 13.7681L0.698377 16.0981C0.600588 16.2204 0.5329 16.364 0.500766 16.5173C0.468633 16.6706 0.472952 16.8293 0.513377 16.9806C0.819114 18.1299 1.27646 19.2333 1.87338 20.2619C1.95153 20.3965 2.06003 20.511 2.19024 20.5962C2.32044 20.6815 2.46876 20.7352 2.62338 20.7531L5.58838 21.0831C5.71254 21.2131 5.83754 21.3381 5.96338 21.4581L6.30963 24.4306C6.32763 24.5853 6.38153 24.7337 6.46704 24.8639C6.55255 24.9942 6.66729 25.1026 6.80213 25.1806C7.83108 25.7764 8.93443 26.2333 10.0834 26.5394C10.2348 26.5796 10.3935 26.5837 10.5468 26.5514C10.7001 26.519 10.8437 26.4511 10.9659 26.3531L13.2896 24.4981C13.4696 24.5031 13.6496 24.5031 13.8296 24.4981L16.1596 26.3631C16.282 26.4609 16.4256 26.5286 16.5788 26.5607C16.7321 26.5928 16.8908 26.5885 17.0421 26.5481C18.1914 26.2424 19.2948 25.785 20.3234 25.1881C20.458 25.1099 20.5725 25.0014 20.6578 24.8712C20.743 24.741 20.7968 24.5927 20.8146 24.4381L21.1446 21.4731C21.2746 21.3498 21.3996 21.2248 21.5196 21.0981L24.4921 20.7481C24.6469 20.7301 24.7953 20.6762 24.9255 20.5907C25.0557 20.5052 25.1641 20.3904 25.2421 20.2556C25.8379 19.2266 26.2948 18.1233 26.6009 16.9744C26.6411 16.8229 26.6452 16.6642 26.6129 16.5109C26.5805 16.3576 26.5126 16.2141 26.4146 16.0919L24.5596 13.7681ZM22.5471 12.9556C22.5684 13.317 22.5684 13.6792 22.5471 14.0406C22.5322 14.288 22.6097 14.5321 22.7646 14.7256L24.5384 16.9419C24.3348 17.5887 24.0742 18.2162 23.7596 18.8169L20.9346 19.1369C20.6886 19.1642 20.4615 19.2817 20.2971 19.4669C20.0565 19.7375 19.8002 19.9937 19.5296 20.2344C19.3445 20.3987 19.2269 20.6258 19.1996 20.8719L18.8859 23.6944C18.2852 24.0091 17.6578 24.2697 17.0109 24.4731L14.7934 22.6994C14.6159 22.5576 14.3955 22.4804 14.1684 22.4806H14.1084C13.747 22.5019 13.3847 22.5019 13.0234 22.4806C12.776 22.4657 12.5319 22.5432 12.3384 22.6981L10.1159 24.4731C9.46904 24.2696 8.84158 24.009 8.24088 23.6944L7.92088 20.8731C7.89357 20.6271 7.77599 20.3999 7.59088 20.2356C7.32026 19.995 7.06399 19.7387 6.82338 19.4681C6.65904 19.283 6.4319 19.1654 6.18588 19.1381L3.36338 18.8231C3.04862 18.2225 2.788 17.595 2.58463 16.9481L4.35838 14.7306C4.51326 14.5371 4.59077 14.293 4.57588 14.0456C4.55463 13.6842 4.55463 13.322 4.57588 12.9606C4.59077 12.7132 4.51326 12.4691 4.35838 12.2756L2.58463 10.0544C2.78816 9.40752 3.04877 8.78005 3.36338 8.17935L6.18463 7.85935C6.43065 7.83205 6.65779 7.71446 6.82213 7.52935C7.06274 7.25874 7.31901 7.00247 7.58963 6.76185C7.77547 6.59741 7.89354 6.36975 7.92088 6.1231L8.23463 3.30185C8.83526 2.98709 9.46274 2.72648 10.1096 2.5231L12.3271 4.29685C12.5206 4.45174 12.7647 4.52925 13.0121 4.51435C13.3735 4.4931 13.7358 4.4931 14.0971 4.51435C14.3445 4.52925 14.5886 4.45174 14.7821 4.29685L17.0034 2.5231C17.6502 2.72664 18.2777 2.98724 18.8784 3.30185L19.1984 6.1231C19.2257 6.36912 19.3433 6.59627 19.5284 6.7606C19.799 7.00122 20.0553 7.25749 20.2959 7.5281C20.4602 7.71321 20.6874 7.83079 20.9334 7.8581L23.7559 8.17185C24.0706 8.77248 24.3313 9.39996 24.5346 10.0469L22.7609 12.2644C22.6045 12.4595 22.5269 12.7061 22.5434 12.9556H22.5471Z" fill="#F5F4F3"/>
</svg>
