<svg width="27" height="28" viewBox="0 0 27 28" fill="none" xmlns="http://www.w3.org/2000/svg">
<path d="M24.5596 14.3326C24.5646 14.1526 24.5646 13.9726 24.5596 13.7926L26.4246 11.4626C26.5224 11.3402 26.5901 11.1966 26.6222 11.0433C26.6544 10.8901 26.6501 10.7314 26.6096 10.5801C26.3033 9.43099 25.846 8.32763 25.2496 7.29881C25.1715 7.1642 25.063 7.0497 24.9328 6.96442C24.8026 6.87914 24.6542 6.82542 24.4996 6.80756L21.5346 6.47756C21.4113 6.34756 21.2863 6.22256 21.1596 6.10256L20.8096 3.13006C20.7916 2.97532 20.7377 2.82693 20.6522 2.69672C20.5667 2.56651 20.452 2.45807 20.3171 2.38006C19.2884 1.78412 18.185 1.32762 17.0359 1.02256C16.8846 0.982132 16.7259 0.977813 16.5726 1.00995C16.4193 1.04208 16.2757 1.10977 16.1534 1.20756L13.8296 3.06256C13.6496 3.06256 13.4696 3.06256 13.2896 3.06256L10.9596 1.20131C10.8373 1.10352 10.6937 1.03583 10.5404 1.0037C10.3871 0.971563 10.2284 0.975882 10.0771 1.01631C8.92806 1.32259 7.8247 1.77991 6.79588 2.37631C6.66127 2.45446 6.54677 2.56296 6.46149 2.69317C6.37621 2.82337 6.32249 2.97169 6.30463 3.12631L5.97463 6.09631C5.84463 6.22047 5.71963 6.34547 5.59963 6.47131L2.62713 6.81256C2.47239 6.83056 2.324 6.88446 2.19379 6.96997C2.06358 7.05548 1.95514 7.17022 1.87713 7.30506C1.28131 8.33401 0.82442 9.43736 0.518377 10.5863C0.478124 10.7377 0.474006 10.8965 0.506358 11.0497C0.538709 11.203 0.606624 11.3466 0.704627 11.4688L2.55963 13.7926C2.55963 13.9726 2.55963 14.1526 2.55963 14.3326L0.698377 16.6626C0.600588 16.7849 0.5329 16.9285 0.500766 17.0818C0.468633 17.2351 0.472952 17.3937 0.513377 17.5451C0.819661 18.6941 1.27698 19.7975 1.87338 20.8263C1.95153 20.9609 2.06003 21.0754 2.19024 21.1607C2.32044 21.246 2.46876 21.2997 2.62338 21.3176L5.58838 21.6476C5.71254 21.7776 5.83754 21.9026 5.96338 22.0226L6.30963 24.9951C6.32763 25.1498 6.38153 25.2982 6.46704 25.4284C6.55255 25.5586 6.66729 25.667 6.80213 25.7451C7.83108 26.3409 8.93443 26.7978 10.0834 27.1038C10.2348 27.1441 10.3935 27.1482 10.5468 27.1158C10.7001 27.0835 10.8437 27.0156 10.9659 26.9176L13.2896 25.0626C13.4696 25.0676 13.6496 25.0676 13.8296 25.0626L16.1596 26.9276C16.282 27.0253 16.4256 27.093 16.5788 27.1252C16.7321 27.1573 16.8908 27.153 17.0421 27.1126C18.1914 26.8068 19.2948 26.3495 20.3234 25.7526C20.458 25.6744 20.5725 25.5659 20.6578 25.4357C20.743 25.3055 20.7968 25.1572 20.8146 25.0026L21.1446 22.0376C21.2746 21.9142 21.3996 21.7892 21.5196 21.6626L24.4921 21.3126C24.6469 21.2946 24.7953 21.2407 24.9255 21.1551C25.0557 21.0696 25.1641 20.9549 25.2421 20.8201C25.8379 19.7911 26.2948 18.6878 26.6009 17.5388C26.6411 17.3874 26.6452 17.2287 26.6129 17.0754C26.5805 16.9221 26.5126 16.7785 26.4146 16.6563L24.5596 14.3326ZM13.5596 19.0626C12.5707 19.0626 11.604 18.7693 10.7818 18.2199C9.95953 17.6705 9.31867 16.8896 8.94023 15.976C8.56179 15.0623 8.46277 14.057 8.6557 13.0871C8.84863 12.1172 9.32483 11.2263 10.0241 10.527C10.7234 9.82776 11.6143 9.35156 12.5842 9.15863C13.5541 8.9657 14.5594 9.06472 15.473 9.44316C16.3867 9.8216 17.1676 10.4625 17.717 11.2847C18.2664 12.107 18.5596 13.0737 18.5596 14.0626C18.5596 15.3886 18.0328 16.6604 17.0952 17.5981C16.1575 18.5358 14.8857 19.0626 13.5596 19.0626Z" fill="#579DFF"/>
</svg>
