<svg width="20" height="20" viewBox="0 0 20 20" fill="none" xmlns="http://www.w3.org/2000/svg">
<path d="M10.0001 0.25C8.07176 0.25 6.1867 0.821828 4.58332 1.89317C2.97994 2.96452 1.73026 4.48726 0.992301 6.26884C0.254347 8.05042 0.0612641 10.0108 0.43747 11.9021C0.813676 13.7934 1.74227 15.5307 3.10584 16.8943C4.4694 18.2579 6.20668 19.1865 8.098 19.5627C9.98931 19.9389 11.9497 19.7458 13.7313 19.0078C15.5129 18.2699 17.0356 17.0202 18.107 15.4168C19.1783 13.8134 19.7501 11.9284 19.7501 10C19.7474 7.41498 18.7193 4.93661 16.8914 3.10872C15.0635 1.28084 12.5851 0.25273 10.0001 0.25ZM10.0001 18.25C8.36843 18.25 6.77338 17.7661 5.41667 16.8596C4.05997 15.9531 3.00254 14.6646 2.37812 13.1571C1.7537 11.6496 1.59032 9.99085 1.90865 8.39051C2.22698 6.79016 3.01271 5.32015 4.1665 4.16637C5.32028 3.01259 6.79029 2.22685 8.39063 1.90852C9.99097 1.59019 11.6498 1.75357 13.1573 2.37799C14.6648 3.00242 15.9532 4.05984 16.8598 5.41655C17.7663 6.77325 18.2501 8.3683 18.2501 10C18.2476 12.1873 17.3777 14.2843 15.831 15.8309C14.2844 17.3775 12.1874 18.2475 10.0001 18.25ZM13.5308 8.71937C13.6004 8.78906 13.6557 8.87178 13.6934 8.96283C13.7311 9.05387 13.7505 9.15145 13.7505 9.25C13.7505 9.34855 13.7311 9.44613 13.6934 9.53717C13.6557 9.62822 13.6004 9.71094 13.5308 9.78063C13.4611 9.85031 13.3783 9.90558 13.2873 9.9433C13.1963 9.98101 13.0987 10.0004 13.0001 10.0004C12.9016 10.0004 12.804 9.98101 12.713 9.9433C12.6219 9.90558 12.5392 9.85031 12.4695 9.78063L10.7501 8.06031V13.75C10.7501 13.9489 10.6711 14.1397 10.5305 14.2803C10.3898 14.421 10.199 14.5 10.0001 14.5C9.80121 14.5 9.61045 14.421 9.4698 14.2803C9.32914 14.1397 9.25013 13.9489 9.25013 13.75V8.06031L7.53075 9.78063C7.39002 9.92136 7.19915 10.0004 7.00013 10.0004C6.8011 10.0004 6.61023 9.92136 6.4695 9.78063C6.32877 9.63989 6.24971 9.44902 6.24971 9.25C6.24971 9.05098 6.32877 8.86011 6.4695 8.71937L9.4695 5.71937C9.53916 5.64964 9.62187 5.59432 9.71292 5.55658C9.80397 5.51884 9.90156 5.49941 10.0001 5.49941C10.0987 5.49941 10.1963 5.51884 10.2873 5.55658C10.3784 5.59432 10.4611 5.64964 10.5308 5.71937L13.5308 8.71937Z" fill="#8C9BAB"/>
</svg>
