<svg width="20" height="22" viewBox="0 0 20 22" fill="none" xmlns="http://www.w3.org/2000/svg">
<path d="M19.6478 15.125C19.7469 15.297 19.7738 15.5011 19.7226 15.6928C19.6715 15.8845 19.5465 16.0481 19.375 16.1479L10.375 21.3979C10.2603 21.4647 10.1299 21.5 9.99719 21.5C9.86443 21.5 9.73406 21.4647 9.61938 21.3979L0.619375 16.1479C0.450338 16.0463 0.328111 15.8822 0.279156 15.6912C0.230202 15.5001 0.25846 15.2975 0.357813 15.1272C0.457166 14.9568 0.619617 14.8324 0.809996 14.781C1.00037 14.7295 1.20336 14.7551 1.375 14.8522L10 19.8819L18.625 14.8522C18.7969 14.7532 19.0011 14.7263 19.1927 14.7774C19.3844 14.8285 19.5481 14.9535 19.6478 15.125ZM18.625 10.3522L10 15.3819L1.375 10.3522C1.20423 10.2672 1.00748 10.2505 0.824786 10.3054C0.642097 10.3603 0.487203 10.4828 0.391631 10.6479C0.296059 10.813 0.266993 11.0083 0.310348 11.1941C0.353703 11.3798 0.466221 11.5421 0.625 11.6479L9.625 16.8979C9.73968 16.9647 9.87006 17 10.0028 17C10.1356 17 10.2659 16.9647 10.3806 16.8979L19.3806 11.6479C19.4671 11.599 19.5429 11.5334 19.6038 11.4549C19.6647 11.3764 19.7094 11.2867 19.7353 11.1908C19.7612 11.0949 19.7679 10.9948 19.7548 10.8964C19.7417 10.7979 19.7092 10.703 19.6592 10.6172C19.6091 10.5315 19.5426 10.4565 19.4633 10.3966C19.384 10.3367 19.2937 10.2932 19.1975 10.2686C19.1013 10.2439 19.0011 10.2386 18.9028 10.253C18.8046 10.2673 18.7101 10.3011 18.625 10.3522ZM0.25 6.50005C0.250299 6.36868 0.285096 6.2397 0.350907 6.12602C0.416718 6.01233 0.511236 5.91792 0.625 5.85223L9.625 0.602235C9.73968 0.53536 9.87006 0.500122 10.0028 0.500122C10.1356 0.500122 10.2659 0.53536 10.3806 0.602235L19.3806 5.85223C19.4938 5.91829 19.5878 6.01286 19.6531 6.12652C19.7183 6.24018 19.7527 6.36897 19.7527 6.50005C19.7527 6.63112 19.7183 6.75991 19.6531 6.87357C19.5878 6.98724 19.4938 7.08181 19.3806 7.14786L10.3806 12.3979C10.2659 12.4647 10.1356 12.5 10.0028 12.5C9.87006 12.5 9.73968 12.4647 9.625 12.3979L0.625 7.14786C0.511236 7.08218 0.416718 6.98777 0.350907 6.87408C0.285096 6.76039 0.250299 6.63141 0.25 6.50005ZM2.48875 6.50005L10 10.8819L17.5112 6.50005L10 2.11817L2.48875 6.50005Z" fill="#343330"/>
</svg>
