<svg width="15" height="22" viewBox="0 0 15 22" fill="none" xmlns="http://www.w3.org/2000/svg">
<path d="M7.50012 15.5C8.69322 15.4988 9.83709 15.0243 10.6807 14.1806C11.5244 13.337 11.9989 12.1931 12.0001 11V5C12.0001 3.80653 11.526 2.66193 10.6821 1.81802C9.83819 0.974106 8.6936 0.5 7.50012 0.5C6.30665 0.5 5.16206 0.974106 4.31814 1.81802C3.47423 2.66193 3.00012 3.80653 3.00012 5V11C3.00136 12.1931 3.47587 13.337 4.31951 14.1806C5.16316 15.0243 6.30703 15.4988 7.50012 15.5ZM4.50012 5C4.50012 4.20435 4.81619 3.44129 5.3788 2.87868C5.94141 2.31607 6.70447 2 7.50012 2C8.29577 2 9.05883 2.31607 9.62144 2.87868C10.1841 3.44129 10.5001 4.20435 10.5001 5V11C10.5001 11.7956 10.1841 12.5587 9.62144 13.1213C9.05883 13.6839 8.29577 14 7.50012 14C6.70447 14 5.94141 13.6839 5.3788 13.1213C4.81619 12.5587 4.50012 11.7956 4.50012 11V5ZM8.25012 18.4625V20.75C8.25012 20.9489 8.17111 21.1397 8.03045 21.2803C7.8898 21.421 7.69903 21.5 7.50012 21.5C7.30121 21.5 7.11044 21.421 6.96979 21.2803C6.82914 21.1397 6.75012 20.9489 6.75012 20.75V18.4625C4.90104 18.2743 3.1874 17.4072 1.9406 16.0288C0.693799 14.6504 0.00240593 12.8586 0.00012207 11C0.00012207 10.8011 0.0791398 10.6103 0.219792 10.4697C0.360444 10.329 0.55121 10.25 0.750122 10.25C0.949034 10.25 1.1398 10.329 1.28045 10.4697C1.4211 10.6103 1.50012 10.8011 1.50012 11C1.50012 12.5913 2.13226 14.1174 3.25748 15.2426C4.3827 16.3679 5.90882 17 7.50012 17C9.09142 17 10.6175 16.3679 11.7428 15.2426C12.868 14.1174 13.5001 12.5913 13.5001 11C13.5001 10.8011 13.5791 10.6103 13.7198 10.4697C13.8604 10.329 14.0512 10.25 14.2501 10.25C14.449 10.25 14.6398 10.329 14.7805 10.4697C14.9211 10.6103 15.0001 10.8011 15.0001 11C14.9978 12.8586 14.3064 14.6504 13.0596 16.0288C11.8128 17.4072 10.0992 18.2743 8.25012 18.4625Z" fill="#8C9BAB"/>
</svg>
