<svg width="19" height="4" viewBox="0 0 19 4" fill="none" xmlns="http://www.w3.org/2000/svg">
<path d="M8 2C8 1.70333 8.08797 1.41332 8.25279 1.16664C8.41762 0.919971 8.65188 0.727713 8.92597 0.614181C9.20006 0.50065 9.50166 0.470944 9.79263 0.528822C10.0836 0.5867 10.3509 0.729562 10.5607 0.93934C10.7704 1.14912 10.9133 1.41639 10.9712 1.70736C11.0291 1.99834 10.9993 2.29994 10.8858 2.57402C10.7723 2.84811 10.58 3.08238 10.3334 3.2472C10.0867 3.41203 9.79667 3.5 9.5 3.5C9.10217 3.5 8.72064 3.34196 8.43934 3.06066C8.15803 2.77935 8 2.39782 8 2ZM1.5 3.5C1.79667 3.5 2.08668 3.41203 2.33335 3.2472C2.58003 3.08238 2.77229 2.84811 2.88582 2.57402C2.99935 2.29993 3.02905 1.99834 2.97118 1.70736C2.9133 1.41639 2.77044 1.14912 2.56066 0.93934C2.35088 0.729561 2.0836 0.586699 1.79263 0.528821C1.50166 0.470943 1.20006 0.500649 0.925974 0.61418C0.651885 0.727712 0.417616 0.91997 0.252794 1.16664C0.087972 1.41332 -2.10791e-06 1.70333 -2.13384e-06 2C-2.16862e-06 2.39782 0.158034 2.77935 0.439338 3.06066C0.720643 3.34196 1.10217 3.5 1.5 3.5ZM17.5 3.5C17.7967 3.5 18.0867 3.41203 18.3334 3.2472C18.58 3.08238 18.7723 2.84811 18.8858 2.57403C18.9994 2.29994 19.0291 1.99834 18.9712 1.70737C18.9133 1.41639 18.7704 1.14912 18.5607 0.939341C18.3509 0.729562 18.0836 0.5867 17.7926 0.528822C17.5017 0.470945 17.2001 0.50065 16.926 0.614182C16.6519 0.727713 16.4176 0.919972 16.2528 1.16665C16.088 1.41332 16 1.70333 16 2C16 2.39782 16.158 2.77936 16.4393 3.06066C16.7206 3.34196 17.1022 3.5 17.5 3.5Z" fill="#8C9BAB"/>
</svg>
