<svg width="20" height="20" viewBox="0 0 20 20" fill="none" xmlns="http://www.w3.org/2000/svg">
<path d="M19.0614 6.62821L13.3717 0.939461C13.2324 0.800137 13.067 0.689617 12.885 0.614213C12.703 0.53881 12.5079 0.5 12.3109 0.5C12.1139 0.5 11.9188 0.53881 11.7368 0.614213C11.5548 0.689617 11.3894 0.800137 11.2501 0.939461L6.22229 5.98321C5.22292 5.67009 2.94104 5.29227 0.55979 7.21508C0.395657 7.34707 0.261158 7.51213 0.165047 7.69954C0.0689353 7.88694 0.0133667 8.09249 0.00195819 8.30279C-0.00945028 8.5131 0.023557 8.72345 0.0988314 8.92015C0.174106 9.11685 0.28996 9.2955 0.438853 9.44446L4.96885 13.9726L0.969478 17.9691C0.828747 18.1099 0.749686 18.3007 0.749686 18.4998C0.749686 18.6988 0.828747 18.8897 0.969478 19.0304C1.11021 19.1711 1.30108 19.2502 1.5001 19.2502C1.69913 19.2502 1.89 19.1711 2.03073 19.0304L6.02729 15.031L10.5545 19.5582C10.6937 19.698 10.859 19.8089 11.0411 19.8847C11.2232 19.9604 11.4185 19.9996 11.6157 19.9998C11.6514 19.9998 11.686 19.9998 11.7217 19.9998C11.9355 19.985 12.1436 19.9243 12.3319 19.8219C12.5202 19.7195 12.6843 19.5778 12.8129 19.4063C14.6542 16.9595 14.477 14.9701 14.0495 13.7813L19.0623 8.74977C19.2016 8.61042 19.312 8.445 19.3873 8.26295C19.4626 8.08091 19.5014 7.88581 19.5013 7.6888C19.5012 7.49179 19.4623 7.29672 19.3868 7.11474C19.3113 6.93277 19.2007 6.76744 19.0614 6.62821ZM18.0001 7.68946L12.631 13.0763C12.5202 13.1876 12.447 13.3309 12.422 13.486C12.3969 13.6411 12.4212 13.8002 12.4914 13.9407C13.3782 15.7154 12.3226 17.5585 11.6157 18.4988L1.5001 8.38227C2.6326 7.46915 3.71635 7.22821 4.5451 7.22821C5.07097 7.22103 5.5925 7.32419 6.07604 7.53102C6.21711 7.60162 6.37685 7.62595 6.53254 7.60053C6.68822 7.57512 6.83193 7.50126 6.94323 7.38946L12.3114 1.99977L18.0001 7.68852V7.68946Z" fill="#1D2125"/>
</svg>
