<svg width="18" height="18" viewBox="0 0 18 18" fill="none" xmlns="http://www.w3.org/2000/svg">
<path d="M18.0001 9C18.0001 9.19891 17.9211 9.38968 17.7805 9.53033C17.6398 9.67098 17.449 9.75 17.2501 9.75H9.75012V17.25C9.75012 17.4489 9.67111 17.6397 9.53045 17.7803C9.3898 17.921 9.19903 18 9.00012 18C8.80121 18 8.61044 17.921 8.46979 17.7803C8.32914 17.6397 8.25012 17.4489 8.25012 17.25V9.75H0.750122C0.55121 9.75 0.360444 9.67098 0.219792 9.53033C0.0791398 9.38968 0.00012207 9.19891 0.00012207 9C0.00012207 8.80109 0.0791398 8.61032 0.219792 8.46967C0.360444 8.32902 0.55121 8.25 0.750122 8.25H8.25012V0.75C8.25012 0.551088 8.32914 0.360322 8.46979 0.21967C8.61044 0.0790178 8.80121 0 9.00012 0C9.19903 0 9.3898 0.0790178 9.53045 0.21967C9.67111 0.360322 9.75012 0.551088 9.75012 0.75V8.25H17.2501C17.449 8.25 17.6398 8.32902 17.7805 8.46967C17.9211 8.61032 18.0001 8.80109 18.0001 9Z" fill="#8C9BAB"/>
</svg>
