<svg width="36" height="33" viewBox="0 0 36 33" fill="none" xmlns="http://www.w3.org/2000/svg">
<path d="M35.3928 26.479L21.7287 2.74932C21.3873 2.16795 20.8998 1.68591 20.3147 1.35098C19.7295 1.01604 19.067 0.839844 18.3928 0.839844C17.7186 0.839844 17.056 1.01604 16.4709 1.35098C15.8858 1.68591 15.3983 2.16795 15.0569 2.74932L1.39279 26.479C1.06425 27.0413 0.891113 27.6809 0.891113 28.3321C0.891113 28.9834 1.06425 29.6229 1.39279 30.1853C1.72987 30.7701 2.21649 31.2548 2.80273 31.5895C3.38896 31.9242 4.0537 32.097 4.72873 32.0899H32.0569C32.7313 32.0964 33.3954 31.9234 33.9811 31.5887C34.5667 31.254 35.0528 30.7697 35.3897 30.1853C35.7187 29.6232 35.8924 28.9838 35.8929 28.3326C35.8935 27.6813 35.7209 27.0416 35.3928 26.479ZM33.2256 28.9337C33.1065 29.1369 32.9355 29.3048 32.7301 29.4201C32.5247 29.5354 32.2924 29.594 32.0569 29.5899H4.72873C4.49322 29.594 4.26087 29.5354 4.05549 29.4201C3.85011 29.3048 3.6791 29.1369 3.55998 28.9337C3.45208 28.751 3.39516 28.5427 3.39516 28.3306C3.39516 28.1184 3.45208 27.9101 3.55998 27.7274L17.224 3.99776C17.3456 3.79553 17.5174 3.62819 17.7227 3.51201C17.9281 3.39584 18.16 3.33478 18.3959 3.33478C18.6319 3.33478 18.8638 3.39584 19.0691 3.51201C19.2745 3.62819 19.4463 3.79553 19.5678 3.99776L33.2319 27.7274C33.3388 27.9107 33.3946 28.1193 33.3935 28.3314C33.3924 28.5436 33.3344 28.7516 33.2256 28.9337Z" fill="#161A1D"/>
<path d="M12.1428 19.5898C12.1428 19.2583 12.2745 18.9404 12.5089 18.706C12.7434 18.4715 13.0613 18.3398 13.3928 18.3398H17.1428V14.5898C17.1428 14.2583 17.2745 13.9404 17.5089 13.706C17.7434 13.4715 18.0613 13.3398 18.3928 13.3398C18.7243 13.3398 19.0423 13.4715 19.2767 13.706C19.5111 13.9404 19.6428 14.2583 19.6428 14.5898V18.3398H23.3928C23.7243 18.3398 24.0423 18.4715 24.2767 18.706C24.5111 18.9404 24.6428 19.2583 24.6428 19.5898C24.6428 19.9214 24.5111 20.2393 24.2767 20.4737C24.0423 20.7081 23.7243 20.8398 23.3928 20.8398H19.6428V24.5898C19.6428 24.9214 19.5111 25.2393 19.2767 25.4737C19.0423 25.7081 18.7243 25.8398 18.3928 25.8398C18.0613 25.8398 17.7434 25.7081 17.5089 25.4737C17.2745 25.2393 17.1428 24.9214 17.1428 24.5898V20.8398H13.3928C13.0613 20.8398 12.7434 20.7081 12.5089 20.4737C12.2745 20.2393 12.1428 19.9214 12.1428 19.5898Z" fill="#161A1D"/>
</svg>
