<svg width="21" height="18" viewBox="0 0 21 18" fill="none" xmlns="http://www.w3.org/2000/svg">
<path d="M20.7806 7.96997L13.2806 0.469965C13.1758 0.365014 13.0422 0.293507 12.8967 0.264489C12.7512 0.235472 12.6004 0.250246 12.4633 0.306945C12.3263 0.363643 12.2091 0.459718 12.1266 0.583019C12.0441 0.706321 12.0001 0.851311 12 0.999653V4.78247C9.56813 4.99059 6.88219 6.18122 4.6725 8.05528C2.01188 10.3128 0.355317 13.2218 0.00750404 16.2462C-0.0196762 16.4813 0.0279992 16.7191 0.143745 16.9255C0.259491 17.132 0.43741 17.2967 0.652182 17.3962C0.866954 17.4957 1.10764 17.5249 1.33997 17.4797C1.57231 17.4345 1.78447 17.3171 1.94625 17.1443C2.9775 16.0465 6.64688 12.575 12 12.2693V15.9997C12.0001 16.148 12.0441 16.293 12.1266 16.4163C12.2091 16.5396 12.3263 16.6357 12.4633 16.6924C12.6004 16.7491 12.7512 16.7638 12.8967 16.7348C13.0422 16.7058 13.1758 16.6343 13.2806 16.5293L20.7806 9.02934C20.9209 8.88874 20.9997 8.69825 20.9997 8.49965C20.9997 8.30106 20.9209 8.11057 20.7806 7.96997ZM13.5 14.1893V11.4997C13.5 11.3007 13.421 11.11 13.2803 10.9693C13.1397 10.8287 12.9489 10.7497 12.75 10.7497C10.1175 10.7497 7.55344 11.4368 5.12907 12.7934C3.89433 13.4874 2.74389 14.3216 1.70063 15.2797C2.24438 13.0447 3.615 10.9193 5.64282 9.19903C7.81969 7.35309 10.4766 6.24965 12.75 6.24965C12.9489 6.24965 13.1397 6.17063 13.2803 6.02998C13.421 5.88933 13.5 5.69857 13.5 5.49965V2.8109L19.1897 8.49965L13.5 14.1893Z" fill="#8C9BAB"/>
</svg>
