<svg width="104" height="46" viewBox="0 0 104 46" fill="none" xmlns="http://www.w3.org/2000/svg">
<mask id="path-1-outside-1_2529_8311" maskUnits="userSpaceOnUse" x="-0.00305202" y="9.93359" width="25" height="27" fill="black">
<rect fill="white" x="-0.00305202" y="9.93359" width="25" height="27"/>
<path d="M3.25 23.447C3.24932 23.1798 3.32004 22.9172 3.45487 22.6865C3.58969 22.4557 3.78372 22.2652 4.01688 22.1345L19.7584 13.1336C19.9846 13.0054 20.24 12.9376 20.5 12.9367C20.7398 12.9372 20.9759 12.9952 21.1887 13.1057C21.4014 13.2163 21.5846 13.3763 21.7228 13.5722C21.861 13.7682 21.9502 13.9944 21.9829 14.2319C22.0156 14.4694 21.991 14.7113 21.9109 14.9374L19.3469 22.4327C19.3216 22.5068 19.2738 22.5712 19.21 22.6168C19.1463 22.6623 19.0699 22.6868 18.9916 22.6867L12.25 22.6867C12.1472 22.6865 12.0454 22.7074 11.951 22.7482C11.8566 22.7889 11.7716 22.8487 11.7013 22.9237C11.631 22.9987 11.5768 23.0873 11.5422 23.1841C11.5075 23.2809 11.4932 23.3838 11.5 23.4864C11.517 23.6793 11.6062 23.8586 11.7498 23.9885C11.8934 24.1183 12.0808 24.1891 12.2744 24.1867L18.985 24.1867C19.0632 24.1866 19.1395 24.2109 19.2033 24.2563C19.267 24.3017 19.3149 24.3659 19.3403 24.4399L21.9128 31.9399C22.013 32.2272 22.0234 32.5383 21.9426 32.8317C21.8618 33.1252 21.6937 33.3871 21.4605 33.5827C21.2274 33.7783 20.9402 33.8984 20.6372 33.927C20.3342 33.9555 20.0297 33.8913 19.7641 33.7427L4.01407 24.753C3.7824 24.6225 3.58957 24.4329 3.45531 24.2034C3.32106 23.9739 3.2502 23.7129 3.25 23.447Z"/>
</mask>
<path d="M3.25 23.447C3.24932 23.1798 3.32004 22.9172 3.45487 22.6865C3.58969 22.4557 3.78372 22.2652 4.01688 22.1345L19.7584 13.1336C19.9846 13.0054 20.24 12.9376 20.5 12.9367C20.7398 12.9372 20.9759 12.9952 21.1887 13.1057C21.4014 13.2163 21.5846 13.3763 21.7228 13.5722C21.861 13.7682 21.9502 13.9944 21.9829 14.2319C22.0156 14.4694 21.991 14.7113 21.9109 14.9374L19.3469 22.4327C19.3216 22.5068 19.2738 22.5712 19.21 22.6168C19.1463 22.6623 19.0699 22.6868 18.9916 22.6867L12.25 22.6867C12.1472 22.6865 12.0454 22.7074 11.951 22.7482C11.8566 22.7889 11.7716 22.8487 11.7013 22.9237C11.631 22.9987 11.5768 23.0873 11.5422 23.1841C11.5075 23.2809 11.4932 23.3838 11.5 23.4864C11.517 23.6793 11.6062 23.8586 11.7498 23.9885C11.8934 24.1183 12.0808 24.1891 12.2744 24.1867L18.985 24.1867C19.0632 24.1866 19.1395 24.2109 19.2033 24.2563C19.267 24.3017 19.3149 24.3659 19.3403 24.4399L21.9128 31.9399C22.013 32.2272 22.0234 32.5383 21.9426 32.8317C21.8618 33.1252 21.6937 33.3871 21.4605 33.5827C21.2274 33.7783 20.9402 33.8984 20.6372 33.927C20.3342 33.9555 20.0297 33.8913 19.7641 33.7427L4.01407 24.753C3.7824 24.6225 3.58957 24.4329 3.45531 24.2034C3.32106 23.9739 3.2502 23.7129 3.25 23.447Z" fill="#579DFF"/>
<path d="M3.25 23.447L6.25001 23.4448L6.24999 23.4393L3.25 23.447ZM4.01688 22.1345L5.48312 24.7518L5.49459 24.7454L5.50601 24.7389L4.01688 22.1345ZM19.7584 13.1336L18.2787 10.5239L18.2693 10.5293L19.7584 13.1336ZM20.5 12.9367L20.5061 9.93674L20.4983 9.93672L20.4905 9.93675L20.5 12.9367ZM21.9109 14.9374L19.083 13.9361L19.0776 13.9512L19.0724 13.9663L21.9109 14.9374ZM19.3469 22.4327L16.5084 21.4616L16.5072 21.4652L19.3469 22.4327ZM18.9916 22.6867L18.9944 19.6867L18.9916 19.6867L18.9916 22.6867ZM12.25 22.6867L12.2434 25.6867L12.25 25.6867L12.25 22.6867ZM11.5 23.4864L8.50659 23.6852L8.50875 23.7176L8.5116 23.7499L11.5 23.4864ZM12.2744 24.1867L12.2744 21.1867L12.2558 21.1867L12.2371 21.187L12.2744 24.1867ZM18.985 24.1867L18.985 27.1867L18.9904 27.1867L18.985 24.1867ZM19.3403 24.4399L22.178 23.4665L22.1775 23.4649L19.3403 24.4399ZM21.9128 31.9399L19.0751 32.9132L19.0775 32.9203L19.08 32.9273L21.9128 31.9399ZM19.7641 33.7427L18.2769 36.3481L18.2881 36.3545L18.2994 36.3608L19.7641 33.7427ZM4.01407 24.753L5.5012 22.1475L5.49358 22.1432L5.48594 22.1389L4.01407 24.753ZM6.24999 23.4393C6.25068 23.7066 6.17996 23.9692 6.04513 24.1999L0.864604 21.173C0.460128 21.8653 0.247949 22.653 0.250012 23.4548L6.24999 23.4393ZM6.04513 24.1999C5.9103 24.4307 5.71628 24.6212 5.48312 24.7518L2.55064 19.5173C1.85116 19.9091 1.26908 20.4807 0.864604 21.173L6.04513 24.1999ZM5.50601 24.7389L21.2476 15.7379L18.2693 10.5293L2.52774 19.5302L5.50601 24.7389ZM21.2382 15.7433C21.016 15.8693 20.765 15.9359 20.5095 15.9367L20.4905 9.93675C19.715 9.9392 18.9532 10.1414 18.2787 10.524L21.2382 15.7433ZM20.4939 15.9367C20.2541 15.9362 20.018 15.8783 19.8052 15.7677L22.5721 10.4438C21.9339 10.1121 21.2254 9.9382 20.5061 9.93674L20.4939 15.9367ZM19.8052 15.7677C19.5925 15.6571 19.4093 15.4972 19.2711 15.3012L24.1744 11.8432C23.7598 11.2554 23.2104 10.7755 22.5721 10.4438L19.8052 15.7677ZM19.2711 15.3012C19.1329 15.1053 19.0437 14.8791 19.011 14.6416L24.9548 13.8222C24.8566 13.1097 24.589 12.431 24.1744 11.8432L19.2711 15.3012ZM19.011 14.6416C18.9783 14.404 19.0029 14.1621 19.083 13.9361L24.7389 15.9386C24.979 15.2605 25.053 14.5348 24.9548 13.8222L19.011 14.6416ZM19.0724 13.9663L16.5084 21.4616L22.1854 23.4037L24.7494 15.9084L19.0724 13.9663ZM16.5072 21.4652C16.684 20.9461 17.019 20.4954 17.4651 20.1764L20.955 25.0571C21.5285 24.647 21.9592 24.0676 22.1866 23.4002L16.5072 21.4652ZM17.4651 20.1764C17.9112 19.8575 18.446 19.6862 18.9944 19.6867L18.9888 25.6867C19.6939 25.6874 20.3814 25.4672 20.955 25.0571L17.4651 20.1764ZM18.9916 19.6867L12.25 19.6867L12.25 25.6867L18.9916 25.6867L18.9916 19.6867ZM12.2566 19.6867C11.7425 19.6856 11.2337 19.7902 10.7617 19.994L13.1403 25.5024C12.8572 25.6246 12.5519 25.6874 12.2434 25.6867L12.2566 19.6867ZM10.7617 19.994C10.2898 20.1978 9.86478 20.4964 9.51309 20.8714L13.8895 24.9759C13.6785 25.2009 13.4235 25.3801 13.1403 25.5024L10.7617 19.994ZM9.51309 20.8714C9.16142 21.2464 8.8906 21.6897 8.71745 22.1737L14.3669 24.1945C14.263 24.485 14.1005 24.7509 13.8895 24.9759L9.51309 20.8714ZM8.71745 22.1737C8.54431 22.6578 8.47254 23.1722 8.50659 23.6852L14.4934 23.2877C14.5138 23.5954 14.4708 23.9041 14.3669 24.1945L8.71745 22.1737ZM8.5116 23.7499C8.59505 24.6963 9.03295 25.5763 9.73759 26.2135L13.7621 21.7634C14.1795 22.1409 14.439 22.6622 14.4884 23.2229L8.5116 23.7499ZM9.73759 26.2135C10.4422 26.8508 11.3616 27.1983 12.3116 27.1865L12.2371 21.187C12.8 21.18 13.3446 21.3859 13.7621 21.7634L9.73759 26.2135ZM12.2744 27.1867L18.985 27.1867L18.985 21.1867L12.2744 21.1867L12.2744 27.1867ZM18.9904 27.1867C18.4428 27.1877 17.9086 27.0174 17.4626 26.6997L20.9439 21.8129C20.3705 21.4044 19.6837 21.1855 18.9796 21.1867L18.9904 27.1867ZM17.4626 26.6997C17.0166 26.382 16.6811 25.9327 16.5032 25.4149L22.1775 23.4649C21.9486 22.799 21.5173 22.2214 20.9439 21.8129L17.4626 26.6997ZM16.5026 25.4132L19.0751 32.9132L24.7505 30.9665L22.178 23.4665L16.5026 25.4132ZM19.08 32.9273C18.9798 32.6399 18.9694 32.3289 19.0502 32.0354L24.835 33.628C25.0773 32.7477 25.0462 31.8146 24.7456 30.9524L19.08 32.9273ZM19.0502 32.0354C19.131 31.742 19.2991 31.4801 19.5323 31.2845L23.3888 35.881C24.0882 35.2941 24.5926 34.5083 24.835 33.628L19.0502 32.0354ZM19.5323 31.2845C19.7654 31.0889 20.0526 30.9688 20.3556 30.9402L20.9188 36.9137C21.8278 36.828 22.6893 36.4678 23.3888 35.881L19.5323 31.2845ZM20.3556 30.9402C20.6586 30.9116 20.9631 30.9759 21.2287 31.1245L18.2994 36.3608C19.0962 36.8066 20.0098 36.9994 20.9188 36.9137L20.3556 30.9402ZM21.2512 31.1372L5.5012 22.1475L2.52693 27.3584L18.2769 36.3481L21.2512 31.1372ZM5.48594 22.1389C5.7176 22.2693 5.91044 22.459 6.04469 22.6884L0.865933 25.7184C1.2687 26.4068 1.8472 26.9758 2.54219 27.3671L5.48594 22.1389ZM6.04469 22.6884C6.17895 22.9179 6.2498 23.1789 6.25 23.4448L0.250005 23.4493C0.2506 24.2469 0.463164 25.03 0.865933 25.7184L6.04469 22.6884Z" fill="#161A1D" mask="url(#path-1-outside-1_2529_8311)"/>
<rect x="23" y="2.93652" width="58" height="41" rx="20.5" fill="#579DFF"/>
<rect x="23" y="2.93652" width="58" height="41" rx="20.5" stroke="#161A1D" stroke-width="4"/>
<path d="M49 14.9365C49 15.2332 48.912 15.5232 48.7472 15.7699C48.5824 16.0166 48.3481 16.2088 48.074 16.3223C47.7999 16.4359 47.4983 16.4656 47.2074 16.4077C46.9164 16.3498 46.6491 16.207 46.4393 15.9972C46.2296 15.7874 46.0867 15.5201 46.0288 15.2292C45.9709 14.9382 46.0006 14.6366 46.1142 14.3625C46.2277 14.0884 46.42 13.8541 46.6666 13.6893C46.9133 13.5245 47.2033 13.4365 47.5 13.4365C47.8978 13.4365 48.2794 13.5946 48.5607 13.8759C48.842 14.1572 49 14.5387 49 14.9365ZM56.5 16.4365C56.7967 16.4365 57.0867 16.3486 57.3334 16.1837C57.58 16.0189 57.7723 15.7846 57.8858 15.5105C57.9994 15.2365 58.0291 14.9349 57.9712 14.6439C57.9133 14.3529 57.7704 14.0856 57.5607 13.8759C57.3509 13.6661 57.0836 13.5232 56.7926 13.4653C56.5017 13.4075 56.2001 13.4372 55.926 13.5507C55.6519 13.6642 55.4176 13.8565 55.2528 14.1032C55.088 14.3498 55 14.6399 55 14.9365C55 15.3343 55.158 15.7159 55.4393 15.9972C55.7206 16.2785 56.1022 16.4365 56.5 16.4365ZM47.5 21.9365C47.2033 21.9365 46.9133 22.0245 46.6666 22.1893C46.42 22.3541 46.2277 22.5884 46.1142 22.8625C46.0006 23.1366 45.9709 23.4382 46.0288 23.7292C46.0867 24.0201 46.2296 24.2874 46.4393 24.4972C46.6491 24.707 46.9164 24.8498 47.2074 24.9077C47.4983 24.9656 47.7999 24.9359 48.074 24.8223C48.3481 24.7088 48.5824 24.5166 48.7472 24.2699C48.912 24.0232 49 23.7332 49 23.4365C49 23.0387 48.842 22.6572 48.5607 22.3759C48.2794 22.0946 47.8978 21.9365 47.5 21.9365ZM56.5 21.9365C56.2033 21.9365 55.9133 22.0245 55.6666 22.1893C55.42 22.3541 55.2277 22.5884 55.1142 22.8625C55.0007 23.1366 54.9709 23.4382 55.0288 23.7292C55.0867 24.0201 55.2296 24.2874 55.4393 24.4972C55.6491 24.707 55.9164 24.8498 56.2074 24.9077C56.4983 24.9656 56.7999 24.9359 57.074 24.8223C57.3481 24.7088 57.5824 24.5166 57.7472 24.2699C57.912 24.0232 58 23.7332 58 23.4365C58 23.0387 57.842 22.6572 57.5607 22.3759C57.2794 22.0946 56.8978 21.9365 56.5 21.9365ZM47.5 30.4365C47.2033 30.4365 46.9133 30.5245 46.6666 30.6893C46.42 30.8541 46.2277 31.0884 46.1142 31.3625C46.0006 31.6366 45.9709 31.9382 46.0288 32.2292C46.0867 32.5201 46.2296 32.7874 46.4393 32.9972C46.6491 33.207 46.9164 33.3498 47.2074 33.4077C47.4983 33.4656 47.7999 33.4359 48.074 33.3223C48.3481 33.2088 48.5824 33.0166 48.7472 32.7699C48.912 32.5232 49 32.2332 49 31.9365C49 31.5387 48.842 31.1572 48.5607 30.8759C48.2794 30.5946 47.8978 30.4365 47.5 30.4365ZM56.5 30.4365C56.2033 30.4365 55.9133 30.5245 55.6666 30.6893C55.42 30.8541 55.2277 31.0884 55.1142 31.3625C55.0007 31.6366 54.9709 31.9382 55.0288 32.2292C55.0867 32.5201 55.2296 32.7874 55.4393 32.9972C55.6491 33.207 55.9164 33.3498 56.2074 33.4077C56.4983 33.4656 56.7999 33.4359 57.074 33.3223C57.3481 33.2088 57.5824 33.0166 57.7472 32.7699C57.912 32.5232 58 32.2332 58 31.9365C58 31.5387 57.842 31.1572 57.5607 30.8759C57.2794 30.5946 56.8978 30.4365 56.5 30.4365Z" fill="#161A1D"/>
<mask id="path-5-outside-2_2529_8311" maskUnits="userSpaceOnUse" x="79.0031" y="9.93945" width="25" height="27" fill="black">
<rect fill="white" x="79.0031" y="9.93945" width="25" height="27"/>
<path d="M100.75 23.426C100.751 23.6933 100.68 23.9558 100.545 24.1866C100.41 24.4173 100.216 24.6079 99.9831 24.7385L84.2416 33.7394C84.0154 33.8677 83.76 33.9355 83.5 33.9363C83.2602 33.9358 83.0241 33.8779 82.8113 33.7673C82.5986 33.6567 82.4154 33.4968 82.2772 33.3008C82.139 33.1049 82.0498 32.8787 82.0171 32.6411C81.9844 32.4036 82.009 32.1617 82.0891 31.9357L84.6531 24.4404C84.6784 24.3662 84.7262 24.3018 84.79 24.2563C84.8537 24.2107 84.9301 24.1862 85.0084 24.1863H91.75C91.8528 24.1865 91.9546 24.1656 92.049 24.1249C92.1434 24.0841 92.2284 24.0244 92.2987 23.9494C92.369 23.8744 92.4232 23.7857 92.4578 23.6889C92.4925 23.5921 92.5068 23.4892 92.5 23.3866C92.483 23.1938 92.3938 23.0145 92.2502 22.8846C92.1066 22.7547 91.9192 22.6839 91.7256 22.6863H85.015C84.9368 22.6865 84.8605 22.6621 84.7967 22.6167C84.733 22.5713 84.6851 22.5072 84.6597 22.4332L82.0872 14.9332C81.987 14.6458 81.9766 14.3347 82.0574 14.0413C82.1382 13.7479 82.3063 13.486 82.5395 13.2903C82.7726 13.0947 83.0598 12.9746 83.3628 12.9461C83.6658 12.9175 83.9703 12.9818 84.2359 13.1304L99.9859 22.1201C100.218 22.2505 100.41 22.4402 100.545 22.6696C100.679 22.8991 100.75 23.1601 100.75 23.426Z"/>
</mask>
<path d="M100.75 23.426C100.751 23.6933 100.68 23.9558 100.545 24.1866C100.41 24.4173 100.216 24.6079 99.9831 24.7385L84.2416 33.7394C84.0154 33.8677 83.76 33.9355 83.5 33.9363C83.2602 33.9358 83.0241 33.8779 82.8113 33.7673C82.5986 33.6567 82.4154 33.4968 82.2772 33.3008C82.139 33.1049 82.0498 32.8787 82.0171 32.6411C81.9844 32.4036 82.009 32.1617 82.0891 31.9357L84.6531 24.4404C84.6784 24.3662 84.7262 24.3018 84.79 24.2563C84.8537 24.2107 84.9301 24.1862 85.0084 24.1863H91.75C91.8528 24.1865 91.9546 24.1656 92.049 24.1249C92.1434 24.0841 92.2284 24.0244 92.2987 23.9494C92.369 23.8744 92.4232 23.7857 92.4578 23.6889C92.4925 23.5921 92.5068 23.4892 92.5 23.3866C92.483 23.1938 92.3938 23.0145 92.2502 22.8846C92.1066 22.7547 91.9192 22.6839 91.7256 22.6863H85.015C84.9368 22.6865 84.8605 22.6621 84.7967 22.6167C84.733 22.5713 84.6851 22.5072 84.6597 22.4332L82.0872 14.9332C81.987 14.6458 81.9766 14.3347 82.0574 14.0413C82.1382 13.7479 82.3063 13.486 82.5395 13.2903C82.7726 13.0947 83.0598 12.9746 83.3628 12.9461C83.6658 12.9175 83.9703 12.9818 84.2359 13.1304L99.9859 22.1201C100.218 22.2505 100.41 22.4402 100.545 22.6696C100.679 22.8991 100.75 23.1601 100.75 23.426Z" fill="#579DFF"/>
<path d="M100.75 23.426L97.75 23.4282L97.75 23.4337L100.75 23.426ZM99.9831 24.7385L98.5169 22.1212L98.5054 22.1277L98.494 22.1342L99.9831 24.7385ZM84.2416 33.7394L85.7213 36.3491L85.7307 36.3438L84.2416 33.7394ZM83.5 33.9363L83.4939 36.9363L83.5017 36.9363L83.5095 36.9363L83.5 33.9363ZM82.0891 31.9357L84.917 32.9369L84.9224 32.9219L84.9276 32.9067L82.0891 31.9357ZM84.6531 24.4404L87.4916 25.4114L87.4928 25.4079L84.6531 24.4404ZM85.0084 24.1863L85.0056 27.1863H85.0084V24.1863ZM91.75 24.1863L91.7566 21.1863H91.75V24.1863ZM92.5 23.3866L95.4934 23.1879L95.4913 23.1555L95.4884 23.1231L92.5 23.3866ZM91.7256 22.6863V25.6863H91.7442L91.7629 25.6861L91.7256 22.6863ZM85.015 22.6863V19.6863L85.0096 19.6863L85.015 22.6863ZM84.6597 22.4332L81.822 23.4065L81.8225 23.4082L84.6597 22.4332ZM82.0872 14.9332L84.9249 13.9599L84.9225 13.9528L84.92 13.9457L82.0872 14.9332ZM84.2359 13.1304L85.7231 10.5249L85.7119 10.5185L85.7006 10.5122L84.2359 13.1304ZM99.9859 22.1201L98.4988 24.7255L98.5064 24.7299L98.5141 24.7342L99.9859 22.1201ZM97.75 23.4337C97.7493 23.1665 97.82 22.9039 97.9549 22.6731L103.135 25.7C103.54 25.0078 103.752 24.22 103.75 23.4183L97.75 23.4337ZM97.9549 22.6731C98.0897 22.4424 98.2837 22.2518 98.5169 22.1212L101.449 27.3558C102.149 26.9639 102.731 26.3923 103.135 25.7L97.9549 22.6731ZM98.494 22.1342L82.7524 31.1351L85.7307 36.3438L101.472 27.3428L98.494 22.1342ZM82.7618 31.1298C82.984 31.0038 83.235 30.9371 83.4905 30.9363L83.5095 36.9363C84.285 36.9338 85.0468 36.7316 85.7213 36.3491L82.7618 31.1298ZM83.5061 30.9363C83.7459 30.9368 83.982 30.9948 84.1948 31.1053L81.4279 36.4293C82.0661 36.761 82.7746 36.9348 83.4939 36.9363L83.5061 30.9363ZM84.1948 31.1053C84.4075 31.2159 84.5907 31.3759 84.7289 31.5718L79.8256 35.0298C80.2402 35.6177 80.7896 36.0975 81.4279 36.4293L84.1948 31.1053ZM84.7289 31.5718C84.8671 31.7678 84.9563 31.994 84.989 32.2315L79.0452 33.0508C79.1434 33.7634 79.411 34.442 79.8256 35.0298L84.7289 31.5718ZM84.989 32.2315C85.0217 32.469 84.9971 32.7109 84.917 32.9369L79.2611 30.9344C79.021 31.6125 78.947 32.3382 79.0452 33.0508L84.989 32.2315ZM84.9276 32.9067L87.4916 25.4114L81.8146 23.4694L79.2506 30.9647L84.9276 32.9067ZM87.4928 25.4079C87.316 25.927 86.981 26.3776 86.5349 26.6966L83.045 21.8159C82.4715 22.226 82.0408 22.8055 81.8134 23.4729L87.4928 25.4079ZM86.5349 26.6966C86.0888 27.0156 85.5541 27.1868 85.0056 27.1863L85.0112 21.1863C84.3061 21.1857 83.6186 21.4059 83.045 21.8159L86.5349 26.6966ZM85.0084 27.1863H91.75V21.1863H85.0084V27.1863ZM91.7434 27.1863C92.2575 27.1874 92.7663 27.0829 93.2383 26.8791L90.8597 21.3707C91.1428 21.2484 91.4481 21.1856 91.7566 21.1863L91.7434 27.1863ZM93.2383 26.8791C93.7102 26.6753 94.1352 26.3766 94.4869 26.0016L90.1105 21.8971C90.3215 21.6721 90.5765 21.4929 90.8597 21.3707L93.2383 26.8791ZM94.4869 26.0016C94.8386 25.6267 95.1094 25.1834 95.2825 24.6993L89.6331 22.6785C89.737 22.3881 89.8995 22.1221 90.1105 21.8971L94.4869 26.0016ZM95.2825 24.6993C95.4557 24.2153 95.5275 23.7008 95.4934 23.1879L89.5066 23.5854C89.4862 23.2776 89.5292 22.9689 89.6331 22.6785L95.2825 24.6993ZM95.4884 23.1231C95.405 22.1767 94.9671 21.2968 94.2624 20.6595L90.2379 25.1096C89.8205 24.7321 89.561 24.2108 89.5116 23.6501L95.4884 23.1231ZM94.2624 20.6595C93.5578 20.0223 92.6384 19.6748 91.6884 19.6865L91.7629 25.6861C91.2 25.6931 90.6554 25.4872 90.2379 25.1096L94.2624 20.6595ZM91.7256 19.6863H85.015V25.6863H91.7256V19.6863ZM85.0096 19.6863C85.5572 19.6853 86.0914 19.8556 86.5374 20.1734L83.0561 25.0601C83.6295 25.4686 84.3163 25.6876 85.0204 25.6863L85.0096 19.6863ZM86.5374 20.1734C86.9834 20.4911 87.3189 20.9403 87.4968 21.4582L81.8225 23.4082C82.0514 24.074 82.4827 24.6516 83.0561 25.0601L86.5374 20.1734ZM87.4974 21.4599L84.9249 13.9599L79.2495 15.9065L81.822 23.4065L87.4974 21.4599ZM84.92 13.9457C85.0202 14.2331 85.0306 14.5442 84.9498 14.8376L79.165 13.245C78.9227 14.1253 78.9538 15.0585 79.2544 15.9207L84.92 13.9457ZM84.9498 14.8376C84.869 15.131 84.7009 15.393 84.4677 15.5886L80.6112 10.9921C79.9118 11.579 79.4074 12.3647 79.165 13.245L84.9498 14.8376ZM84.4677 15.5886C84.2346 15.7842 83.9474 15.9043 83.6444 15.9328L83.0812 9.95933C82.1722 10.045 81.3107 10.4052 80.6112 10.9921L84.4677 15.5886ZM83.6444 15.9328C83.3414 15.9614 83.0369 15.8971 82.7713 15.7485L85.7006 10.5122C84.9038 10.0664 83.9902 9.87362 83.0812 9.95933L83.6444 15.9328ZM82.7488 15.7358L98.4988 24.7255L101.473 19.5146L85.7231 10.5249L82.7488 15.7358ZM98.5141 24.7342C98.2824 24.6037 98.0896 24.4141 97.9553 24.1846L103.134 21.1547C102.731 20.4663 102.153 19.8973 101.458 19.506L98.5141 24.7342ZM97.9553 24.1846C97.8211 23.9551 97.7502 23.6941 97.75 23.4282L103.75 23.4238C103.749 22.6262 103.537 21.8431 103.134 21.1547L97.9553 24.1846Z" fill="#161A1D" mask="url(#path-5-outside-2_2529_8311)"/>
</svg>
